/* XPM */
static char * vbam_xpm[] = {
"32 32 304 2",
"  	c None",
". 	c #A5A8A2",
"+ 	c #A9ABA6",
"@ 	c #ACAEA8",
"# 	c #ACAFA9",
"$ 	c #9B9BA1",
"% 	c #5E5483",
"& 	c #463878",
"* 	c #4B3B7E",
"= 	c #4C3B80",
"- 	c #4A3A7D",
"; 	c #463778",
"> 	c #605684",
", 	c #9E9FA2",
"' 	c #ADB0A9",
") 	c #3E2C75",
"! 	c #473679",
"~ 	c #574785",
"{ 	c #574886",
"] 	c #564785",
"^ 	c #5C4C8A",
"/ 	c #9C8ABD",
"( 	c #B7A3D3",
"_ 	c #B19BCF",
": 	c #B099CF",
"< 	c #9E88C1",
"[ 	c #8771AE",
"} 	c #927DB7",
"| 	c #907AB6",
"1 	c #8973B0",
"2 	c #A58EC6",
"3 	c #B29CD0",
"4 	c #B8A4D3",
"5 	c #9784BB",
"6 	c #574987",
"7 	c #463679",
"8 	c #625091",
"9 	c #B7A2D3",
"0 	c #AF98CE",
"a 	c #9B7EC2",
"b 	c #8467AB",
"c 	c #715992",
"d 	c #6F578E",
"e 	c #6B548B",
"f 	c #655083",
"g 	c #665184",
"h 	c #665284",
"i 	c #675284",
"j 	c #685286",
"k 	c #7B619E",
"l 	c #9D82C3",
"m 	c #B099CE",
"n 	c #B098CE",
"o 	c #B5A1D2",
"p 	c #534386",
"q 	c #8E7CB3",
"r 	c #9070BB",
"s 	c #8E6FB9",
"t 	c #342C40",
"u 	c #1A191D",
"v 	c #1F1E24",
"w 	c #201F25",
"x 	c #222028",
"y 	c #222129",
"z 	c #1E1C21",
"A 	c #322A3E",
"B 	c #8B6BB9",
"C 	c #7F62A9",
"D 	c #8E6DBB",
"E 	c #8C6DBA",
"F 	c #9A7DC2",
"G 	c #8471AC",
"H 	c #392972",
"I 	c #9C89BD",
"J 	c #9375BD",
"K 	c #7B659C",
"L 	c #938B9D",
"M 	c #79639B",
"N 	c #8D6DBA",
"O 	c #715893",
"P 	c #1F1D23",
"Q 	c #3869A7",
"R 	c #1B191E",
"S 	c #6D5291",
"T 	c #6BA435",
"U 	c #9172BD",
"V 	c #A989D9",
"W 	c #A887D7",
"X 	c #9173BE",
"Y 	c #8F7BB5",
"Z 	c #3F2D75",
"` 	c #A592C5",
" .	c #79619B",
"..	c #726780",
"+.	c #D1D5CD",
"@.	c #70667E",
"#.	c #775F9A",
"$.	c #5D497A",
"%.	c #212027",
"&.	c #4070AC",
"*.	c #201E26",
"=.	c #654D86",
"-.	c #7B5CA8",
";.	c #8464B6",
">.	c #8564B7",
",.	c #7759A4",
"'.	c #7C5EA7",
").	c #9581BC",
"!.	c #3C2B74",
"~.	c #3D2B77",
"{.	c #A893C9",
"].	c #91899D",
"^.	c #A6AAA3",
"/.	c #90889D",
"(.	c #503F69",
"_.	c #202026",
":.	c #4777B1",
"<.	c #201F27",
"[.	c #574376",
"}.	c #7557A3",
"|.	c #7556A3",
"1.	c #B4B2B8",
"2.	c #BABABF",
"3.	c #8C78AD",
"4.	c #3D2A77",
"5.	c #3D2B75",
"6.	c #A993CB",
"7.	c #755C9B",
"8.	c #706580",
"9.	c #D1D4CD",
"0.	c #6F647E",
"a.	c #745B9A",
"b.	c #45365C",
"c.	c #202027",
"d.	c #4F7EB7",
"e.	c #45355D",
"f.	c #B1AEB5",
"g.	c #BAB9BF",
"h.	c #664B90",
"i.	c #B1AEB9",
"j.	c #B5B2BB",
"k.	c #8B77AF",
"l.	c #3B2A74",
"m.	c #A68FCB",
"n.	c #8160B6",
"o.	c #715999",
"p.	c #8E869C",
"q.	c #705998",
"r.	c #805EB5",
"s.	c #44355C",
"t.	c #5786BC",
"u.	c #1F1F27",
"v.	c #3F3057",
"w.	c #B1ADB9",
"x.	c #B4B1BB",
"y.	c #6E4FA0",
"z.	c #6E50A2",
"A.	c #6E4FA2",
"B.	c #9C83C5",
"C.	c #3C2A75",
"D.	c #3C2B75",
"E.	c #A38BCA",
"F.	c #7E5CB5",
"G.	c #7B59B2",
"H.	c #7554AD",
"I.	c #7958B0",
"J.	c #7857AC",
"K.	c #45355E",
"L.	c #5F8DC2",
"M.	c #1F2027",
"N.	c #42325C",
"O.	c #6D4DA1",
"P.	c #6B4CA2",
"Q.	c #553E83",
"R.	c #7653AF",
"S.	c #9A7FC5",
"T.	c #3B2974",
"U.	c #3D2D76",
"V.	c #9E85C8",
"W.	c #7B58B4",
"X.	c #6E4FA6",
"Y.	c #5F4398",
"Z.	c #573D8D",
"`.	c #A1A0A5",
" +	c #6694C7",
".+	c #3E2F58",
"++	c #5F4392",
"@+	c #563D8A",
"#+	c #604398",
"$+	c #583E88",
"%+	c #734FAD",
"&+	c #957BC4",
"*+	c #3A2974",
"=+	c #3F2E77",
"-+	c #997EC5",
";+	c #7855B2",
">+	c #7552AF",
",+	c #714FAC",
"'+	c #7452AF",
")+	c #67499B",
"!+	c #43325F",
"~+	c #1F1F26",
"{+	c #6E9BCC",
"]+	c #1E1F26",
"^+	c #41305E",
"/+	c #614498",
"(+	c #543B85",
"_+	c #5C3F97",
":+	c #573D89",
"<+	c #6E4BAC",
"[+	c #9175C2",
"}+	c #3B2A75",
"|+	c #412F78",
"1+	c #9479C3",
"2+	c #7551B1",
"3+	c #6849A5",
"4+	c #5A3E95",
"5+	c #52398B",
"6+	c #A09FA4",
"7+	c #3E2F5B",
"8+	c #1E1E26",
"9+	c #282937",
"0+	c #2D2E3B",
"a+	c #2E2F3D",
"b+	c #32333F",
"c+	c #333441",
"d+	c #2C2D3B",
"e+	c #2A2B39",
"f+	c #2E303C",
"g+	c #433162",
"h+	c #61439B",
"i+	c #503880",
"j+	c #5A3D96",
"k+	c #6848A7",
"l+	c #714DB0",
"m+	c #8F73C1",
"n+	c #3D2976",
"o+	c #9076BF",
"p+	c #7350B1",
"q+	c #6A48A5",
"r+	c #5C408C",
"s+	c #1A181F",
"t+	c #1F1E26",
"u+	c #21222B",
"v+	c #373842",
"w+	c #4F5158",
"x+	c #4B4D54",
"y+	c #494B53",
"z+	c #393B45",
"A+	c #3E4049",
"B+	c #3D3F48",
"C+	c #2F2F39",
"D+	c #5D418F",
"E+	c #6948A7",
"F+	c #886DBA",
"G+	c #3B2774",
"H+	c #5A4590",
"I+	c #9176C2",
"J+	c #8D71C0",
"K+	c #8B6EBF",
"L+	c #8668BC",
"M+	c #7D5CB7",
"N+	c #68489E",
"O+	c #41305F",
"P+	c #2D243E",
"Q+	c #1E1B25",
"R+	c #1C1922",
"S+	c #18171B",
"T+	c #66479D",
"U+	c #7A58B5",
"V+	c #8465BB",
"W+	c #886ABD",
"X+	c #8A6CBE",
"Y+	c #8B6FBD",
"Z+	c #54408A",
"`+	c #392873",
" @	c #3D2C75",
".@	c #412E77",
"+@	c #423279",
"@@	c #543E8A",
"#@	c #7158A6",
"$@	c #8369B4",
"%@	c #8C70BE",
"&@	c #8C6FBF",
"*@	c #8B6DBE",
"=@	c #8B6FBE",
"-@	c #846AB7",
";@	c #745AA8",
">@	c #533E88",
",@	c #423078",
"'@	c #402D77",
")@	c #3D2B74",
"!@	c #392872",
"~@	c #2E215A",
"{@	c #352469",
"]@	c #38256E",
"^@	c #38266E",
"/@	c #37266E",
"(@	c #3A2A71",
"_@	c #3C2A71",
":@	c #3D2A71",
"<@	c #38276F",
"[@	c #36256C",
"}@	c #2F2060",
"                                                                ",
"                                                                ",
"                                                                ",
"                                                                ",
"                                                                ",
"                                                                ",
"                                                                ",
"                                                                ",
"        . + @ # $ % & * = = = = = = = = - ; > , ' @ + .         ",
"    ) ! ~ { { ] ^ / ( _ : < [ } | 1 2 : 3 4 5 6 ] { { ~ 7       ",
"    8 9 : : : : 0 a b c d e f g f f h i j k l m : : : n o p     ",
"    q a r r r r s t u v w w x x x x x x y z A B C B D E F G     ",
"  H I J K L M N O P Q Q Q Q Q Q Q Q Q Q Q Q R S T U V W X Y     ",
"  Z `  ...+.@.#.$.%.&.&.&.&.&.&.&.&.&.&.&.&.*.=.-.;.>.,.'.).!.  ",
"  ~.{.].+.^.+./.(._.:.:.:.:.:.:.:.:.:.:.:.:.<.[.}.|.|.1.2.3.4.  ",
"  5.6.7.8.9.0.a.b.c.d.d.d.d.d.d.d.d.d.d.d.d.c.e.f.g.h.i.j.k.!.  ",
"  l.m.n.o.p.q.r.s.c.t.t.t.t.t.t.t.t.t.t.t.t.u.v.w.x.y.z.A.B.C.  ",
"  D.E.F.G.H.I.J.K.u.L.L.L.L.L.L.L.L.L.L.L.L.M.N.O.O.P.Q.R.S.T.  ",
"  U.V.W.X.Y.Z.`.v.M. + + + + + + + + + + + +c..+++@+#+$+%+&+*+  ",
"  =+-+;+>+,+'+)+!+~+{+{+{+{+{+{+{+{+{+{+{+{+]+^+/+(+_+:+<+[+}+  ",
"  |+1+2+3+4+5+6+7+8+9+9+0+a+b+c+d+9+e+f+9+9+8+g+h+i+j+k+l+m+5.  ",
"  n+o+p+l+l+l+q+r+s+t+u+v+w+x+y+z+A+B+C+u+t+s+D+E+l+l+l+p+F+G+  ",
"    H+I+m+J+K+L+M+N+O+P+Q+R+S+S+S+S+R+Q+P+O+T+U+V+W+X+K+Y+Z+    ",
"      `+ @.@+@@@#@$@%@J+J+&@*@*@*@X+X+X+X+=@-@;@>@,@'@)@!@      ",
"                ~@{@]@^@/@(@_@_@_@_@_@_@:@<@[@}@                ",
"                                                                ",
"                                                                ",
"                                                                ",
"                                                                ",
"                                                                ",
"                                                                ",
"                                                                "};
